<?xml version="1.0" encoding="UTF-8" standalone="no"?>
<svg
   xmlns:dc="http://purl.org/dc/elements/1.1/"
   xmlns:cc="http://creativecommons.org/ns#"
   xmlns:rdf="http://www.w3.org/1999/02/22-rdf-syntax-ns#"
   xmlns:svg="http://www.w3.org/2000/svg"
   xmlns="http://www.w3.org/2000/svg"
   xmlns:sodipodi="http://sodipodi.sourceforge.net/DTD/sodipodi-0.dtd"
   xmlns:inkscape="http://www.inkscape.org/namespaces/inkscape"
   width="256"
   height="512"
   viewBox="0 0 67.73333 135.46666"
   version="1.1"
   id="svg8"
   sodipodi:docname="-ng.svg"
   inkscape:version="1.0 (4035a4fb49, 2020-05-01)"
   inkscape:export-filename="/home/mszegedy/documents/Dropbox/backup/code/tex/mitaenkeele/glyphs/KUDI.png"
   inkscape:export-xdpi="341.32999"
   inkscape:export-ydpi="341.32999">
  <defs
     id="defs2" />
  <sodipodi:namedview
     id="base"
     pagecolor="#ffffff"
     bordercolor="#666666"
     borderopacity="1.0"
     inkscape:pageopacity="0.0"
     inkscape:pageshadow="2"
     inkscape:zoom="1.1298108"
     inkscape:cx="-50.795313"
     inkscape:cy="327.27769"
     inkscape:document-units="mm"
     inkscape:current-layer="layer1"
     inkscape:document-rotation="0"
     showgrid="false"
     units="px"
     inkscape:window-width="1920"
     inkscape:window-height="1061"
     inkscape:window-x="0"
     inkscape:window-y="19"
     inkscape:window-maximized="1" />
  <metadata
     id="metadata5">
    <rdf:RDF>
      <cc:Work
         rdf:about="">
        <dc:format>image/svg+xml</dc:format>
        <dc:type
           rdf:resource="http://purl.org/dc/dcmitype/StillImage" />
        <dc:title></dc:title>
      </cc:Work>
    </rdf:RDF>
  </metadata>
  <g
     inkscape:label="Layer 1"
     inkscape:groupmode="layer"
     id="layer1">
    <path
       transform="scale(0.26458333)"
       d="M 114 0 C 86.843233 0 89.57855 93.171875 79.521484 93.171875 C 69.464416 93.171875 69.683573 89.107536 63.074219 79.931641 L 63.074219 124.38281 C 112.06529 83.45636 80.877288 238.9405 63.15625 171.25977 L 43.005859 171.25977 C 33.616025 217.70977 143.50333 322.08709 14.835938 310.61133 L 0 384 C 40.13902 409.60596 10.172592 374.03565 33.615234 371.85352 C 57.057878 369.67138 63.011688 420.89831 28.046875 440.04688 L 69.378906 481.37891 C 104.1958 456.78548 97.847579 512 128 512 C 158.15242 512 151.8042 456.78544 186.62109 481.37891 L 227.95312 440.04688 C 192.98831 420.89831 198.94212 369.67137 222.38477 371.85352 C 245.82741 374.03566 215.86098 409.60596 256 384 L 241.16406 310.61133 C 112.49667 322.08707 222.38398 217.70977 212.99414 171.25977 L 192.84375 171.25977 C 175.1227 238.94051 143.93471 83.456361 192.92578 124.38281 L 192.92578 79.931641 C 186.31643 89.107536 186.53559 93.171875 176.47852 93.171875 C 166.42145 93.171875 169.15677 3.2325487e-16 142 0 L 142 35.060547 C 158.26026 75.520452 164.39876 114.48047 128 114.48047 C 91.601245 114.48047 97.739739 75.520453 114 35.060547 L 114 0 z M 128 174.45312 L 177.98633 356.13281 L 128 455.14844 L 78.013672 356.13281 L 128 174.45312 z "
       style="fill:#000000;stroke-width:11.492;stroke-linecap:square;stroke-linejoin:round;stroke-dashoffset:44.9958"
       id="rect9035" />
  </g>
</svg>
