<?xml version="1.0" encoding="UTF-8" standalone="no"?>
<svg
   xmlns:dc="http://purl.org/dc/elements/1.1/"
   xmlns:cc="http://creativecommons.org/ns#"
   xmlns:rdf="http://www.w3.org/1999/02/22-rdf-syntax-ns#"
   xmlns:svg="http://www.w3.org/2000/svg"
   xmlns="http://www.w3.org/2000/svg"
   xmlns:sodipodi="http://sodipodi.sourceforge.net/DTD/sodipodi-0.dtd"
   xmlns:inkscape="http://www.inkscape.org/namespaces/inkscape"
   width="512"
   height="512"
   viewBox="0 0 135.46666 135.46666"
   version="1.1"
   id="svg8"
   sodipodi:docname="CJUEPPI.svg"
   inkscape:version="1.0 (4035a4fb49, 2020-05-01)"
   inkscape:export-filename="/home/mszegedy/documents/Dropbox/backup/code/tex/mitaenkeele/glyphs/KUDI.png"
   inkscape:export-xdpi="341.32999"
   inkscape:export-ydpi="341.32999">
  <defs
     id="defs2" />
  <sodipodi:namedview
     id="base"
     pagecolor="#ffffff"
     bordercolor="#666666"
     borderopacity="1.0"
     inkscape:pageopacity="0.0"
     inkscape:pageshadow="2"
     inkscape:zoom="0.84440246"
     inkscape:cx="204.97536"
     inkscape:cy="248.33669"
     inkscape:document-units="mm"
     inkscape:current-layer="layer1"
     inkscape:document-rotation="0"
     showgrid="false"
     units="px"
     inkscape:window-width="1920"
     inkscape:window-height="1061"
     inkscape:window-x="0"
     inkscape:window-y="19"
     inkscape:window-maximized="1" />
  <metadata
     id="metadata5">
    <rdf:RDF>
      <cc:Work
         rdf:about="">
        <dc:format>image/svg+xml</dc:format>
        <dc:type
           rdf:resource="http://purl.org/dc/dcmitype/StillImage" />
        <dc:title></dc:title>
      </cc:Work>
    </rdf:RDF>
  </metadata>
  <g
     inkscape:label="Layer 1"
     inkscape:groupmode="layer"
     id="layer1">
    <path
       transform="scale(0.26458333)"
       d="M 247.1582 8.5878906 L 212.31055 65.535156 C 212.31055 65.535156 234.99435 83.739593 219.45312 108.04883 C 203.91195 132.35805 176.06641 119.90039 176.06641 119.90039 L 138.68359 175.97461 C 138.68359 175.97461 175.19119 203.16946 154.92969 231.04297 C 134.66818 258.91647 99.705078 234.44336 99.705078 234.44336 L 59.556641 294.66602 C 59.556641 294.66602 87.288982 282.54736 93.330078 301.1582 C 99.371175 319.76905 80.976563 339.38086 80.976562 339.38086 L 104.25977 342.11914 C 104.25977 342.11914 161.83661 281.92855 169.99609 342.40234 C 178.15556 402.87613 107.35156 358.875 107.35156 358.875 L 82.673828 367.36328 C 82.673828 367.36328 104.47791 381.68072 103.45508 400.2793 C 102.43225 418.87788 78.908203 423.45313 78.908203 423.45312 L 137.23242 452.61719 C 137.23242 452.61719 155.9335 376.92337 184.2832 392.90234 C 212.6329 408.88131 174.19531 471.09766 174.19531 471.09766 L 211.49805 494.75977 C 202.37447 470.25652 224.15426 425.39487 256 425.39453 C 287.84574 425.39487 309.62553 470.25652 300.50195 494.75977 L 337.80469 471.09766 C 337.80469 471.09766 299.3671 408.88132 327.7168 392.90234 C 356.0665 376.92339 374.76758 452.61719 374.76758 452.61719 L 433.0918 423.45312 C 433.0918 423.45313 409.56774 418.87786 408.54492 400.2793 C 407.52207 381.68073 429.32617 367.36328 429.32617 367.36328 L 404.64844 358.875 C 404.64844 358.875 333.84444 402.87614 342.00391 342.40234 C 350.16338 281.92854 407.74023 342.11914 407.74023 342.11914 L 431.02344 339.38086 C 431.02344 339.38086 412.62884 319.76905 418.66992 301.1582 C 424.71104 282.54736 452.44336 294.66602 452.44336 294.66602 L 412.29492 234.44336 C 412.29492 234.44336 377.33182 258.91647 357.07031 231.04297 C 336.80881 203.16946 373.31641 175.97461 373.31641 175.97461 L 335.93359 119.90039 C 335.93359 119.90039 308.08806 132.35805 292.54688 108.04883 C 277.00565 83.739591 299.68945 65.535156 299.68945 65.535156 L 264.8418 8.5878906 L 266.73828 36.699219 C 279.16691 39.324795 282.87678 50.918158 282.87695 63.621094 C 282.87659 78.464674 270.84358 90.49768 256 90.498047 C 241.15642 90.497681 229.12341 78.464673 229.12305 63.621094 C 229.12322 50.918158 232.83309 39.324797 245.26172 36.699219 L 247.1582 8.5878906 z M 256 165.41992 C 275.05279 165.41982 290.49815 180.86518 290.49805 199.91797 C 290.49815 218.97076 275.05279 234.41611 256 234.41602 C 236.94721 234.41612 221.50185 218.97076 221.50195 199.91797 C 221.50185 180.86518 236.94721 165.41982 256 165.41992 z M 256 269.90039 C 285.15995 269.90049 308.79873 293.53927 308.79883 322.69922 C 308.79873 351.85917 285.15995 375.49794 256 375.49805 C 226.84005 375.49795 203.20127 351.85917 203.20117 322.69922 C 203.20127 293.53927 226.84005 269.90049 256 269.90039 z "
       style="fill:#000000;stroke-width:16.2522;stroke-linecap:square;stroke-linejoin:round;stroke-dashoffset:44.9958"
       id="rect9035" />
  </g>
</svg>
