<?xml version="1.0" encoding="UTF-8" standalone="no"?>
<svg
   xmlns:dc="http://purl.org/dc/elements/1.1/"
   xmlns:cc="http://creativecommons.org/ns#"
   xmlns:rdf="http://www.w3.org/1999/02/22-rdf-syntax-ns#"
   xmlns:svg="http://www.w3.org/2000/svg"
   xmlns="http://www.w3.org/2000/svg"
   xmlns:sodipodi="http://sodipodi.sourceforge.net/DTD/sodipodi-0.dtd"
   xmlns:inkscape="http://www.inkscape.org/namespaces/inkscape"
   inkscape:export-ydpi="341.32999"
   inkscape:export-xdpi="341.32999"
   inkscape:export-filename="/home/mszegedy/documents/Dropbox/backup/code/tex/mitaenkeele/glyphs/demo-1.png"
   inkscape:version="1.0 (4035a4fb49, 2020-05-01)"
   sodipodi:docname="demo-1.svg"
   id="svg8"
   version="1.1"
   viewBox="0 0 462.70093 143.9491"
   height="544.05963"
   width="1748.791">
  <defs
     id="defs2" />
  <sodipodi:namedview
     lock-margins="true"
     fit-margin-bottom="16"
     fit-margin-right="16"
     fit-margin-left="16"
     fit-margin-top="16"
     inkscape:window-maximized="1"
     inkscape:window-y="91"
     inkscape:window-x="0"
     inkscape:window-height="989"
     inkscape:window-width="1920"
     units="px"
     showgrid="false"
     inkscape:document-rotation="0"
     inkscape:current-layer="layer1"
     inkscape:document-units="mm"
     inkscape:cy="280.69906"
     inkscape:cx="422.7423"
     inkscape:zoom="0.41888902"
     inkscape:pageshadow="2"
     inkscape:pageopacity="1"
     borderopacity="1.0"
     bordercolor="#666666"
     pagecolor="#ffffff"
     id="base" />
  <metadata
     id="metadata5">
    <rdf:RDF>
      <cc:Work
         rdf:about="">
        <dc:format>image/svg+xml</dc:format>
        <dc:type
           rdf:resource="http://purl.org/dc/dcmitype/StillImage" />
        <dc:title></dc:title>
      </cc:Work>
    </rdf:RDF>
  </metadata>
  <g
     transform="translate(-19.050009,4.2412206)"
     id="layer1"
     inkscape:groupmode="layer"
     inkscape:label="Layer 1">
    <path
       d="m 34.386484,7.1993309 c 1.128429,3.7435871 -2.553414,4.5559281 -6.851173,4.3660201 l 12.234863,7.063668 C 52.48484,6.3803689 61.515647,31.963705 59.905089,34.753278 58.294527,37.542845 31.62326,42.513686 35.873571,25.378141 L 23.638706,18.314073 c 2.313338,3.626998 3.450893,7.222006 -0.355364,8.116555 l 6.767935,11.721822 c 0,0 13.274365,1.800054 7.631532,13.218115 l 5.807886,10.060254 c 0.825935,-0.6504 14.651785,-35.781574 8.699225,9.714094 l 11.049111,-6.379352 c -6.257074,-14.471124 1.670481,-9.153154 6.942812,-0.02121 5.27233,9.131943 5.914216,18.656729 -3.489614,6.002376 l -11.049112,6.37935 c 42.376686,17.592774 5.039312,12.000456 4.06308,12.390533 l 5.808287,10.059854 c 12.709743,0.822186 7.63153,13.218516 7.63153,13.218516 l 6.767531,11.72183 c 2.677827,-2.84905 5.222121,-0.0664 7.206533,3.75053 v -14.12773 c -16.964974,-4.88691 0.675484,-25.499405 3.896603,-25.499405 3.221123,6e-6 20.861639,20.612505 3.896604,25.499405 v 14.12773 c 1.984406,-3.81695 4.528703,-6.59957 7.206545,-3.75053 l 6.76757,-11.72183 c 0,0 -5.07825,-12.39631 7.63157,-13.218516 l 5.80832,-10.059854 c -0.97624,-0.390083 -38.313727,5.202243 4.06309,-12.390533 l -11.04916,-6.37935 c -9.40388,12.654357 -8.76199,3.129567 -3.48964,-6.002376 5.27237,-9.131946 13.19996,-14.449951 6.94286,0.02121 l 11.04913,6.379352 c -5.95255,-45.495699 7.8733,-10.364502 8.69923,-9.714094 l 5.80789,-10.060254 c -5.64285,-11.418051 7.63153,-13.218115 7.63153,-13.218115 l 6.76793,-11.721822 c -3.80626,-0.894545 -2.66871,-4.489543 -0.35537,-8.116555 l -12.23486,7.064068 c 4.25031,17.13555 -22.42095,12.164714 -24.03152,9.375137 -1.61057,-2.789573 7.42025,-28.3729095 20.13492,-16.124259 l 12.23486,-7.063668 c -4.29775,0.189908 -7.9796,-0.622433 -6.85117,-4.3660201 h -13.53546 c 0,0 -8.19616,10.5958671 -15.26309,0 h -11.61624 c 0.1503,1.0404803 23.66192,30.5793371 -12.762342,2.6764381 v 12.758702 c 15.660962,1.81678 7.091472,6.023187 -3.453197,6.023187 -10.54466,0 -19.114102,-4.206407 -3.453197,-6.023187 V 9.875769 C 51.139355,37.778668 74.650879,8.2398112 74.801179,7.1993309 H 63.185006 c -7.066907,10.5958681 -15.26306,0 -15.26306,0 z M 79.020331,33.95851 h 11.99635 11.996369 l 5.1228,8.873304 5.1232,8.873305 -5.99842,10.388807 -5.998,10.389206 H 91.016681 80.770741 l -5.997974,-10.389206 -5.998375,-10.388807 5.12317,-8.873305 z"
       inkscape:transform-center-y="-1.2579639"
       inkscape:transform-center-x="13.139371"
       style="fill:#000000;fill-opacity:1;stroke:none;stroke-width:0.162625;stroke-linecap:square;stroke-linejoin:round;stroke-miterlimit:4;stroke-dasharray:none;stroke-dashoffset:44.9958;stroke-opacity:1"
       id="path2090" />
    <g
       transform="translate(182.67678,-0.04906405)"
       id="g989">
      <path
         sodipodi:nodetypes="ccccccccccccccccccccccc"
         d="m 42.822371,44.768482 c 7.445205,-4.532878 4.426956,12.575782 -7.647667,16.589766 l -5.879652,13.699318 c 17.383491,-4.60783 11.331818,11.594183 -7.564705,13.457802 l -6.875145,14.029662 c 23.33836,-1.43478 -14.72243942,17.9198 -14.72243942,17.9198 l 9.72471972,13.17695 c 12.5697007,-5.0687 19.5656977,-6.39082 32.2277197,-11.2221 5.653043,5.23158 18.39142,-7.10191 13.292068,-14.9324 l 8.523633,-9.682665 c 10.986402,10.298605 9.29997,-14.191192 1.706454,-13.231598 L 59.12286,71.251737 c 10.698692,4.745198 7.392532,-9.908687 0.01565,-15.610021 l 5.311929,-9.979764 c 3.371742,9.044089 8.499627,-7.482839 4.534607,-10.030597 L 85.715096,24.226701 72.539072,1.923019 67.723761,17.047857 62.908451,1.923019 48.144926,24.226701 c 8.142907,-1.082528 7.976608,3.370166 -12.064849,5.329472 m -2e-6,0 6.742296,15.212309"
         style="fill:#000000;fill-opacity:1;stroke:none;stroke-width:0.21;stroke-linecap:butt;stroke-linejoin:round;stroke-miterlimit:4;stroke-dasharray:none;stroke-opacity:1"
         id="path896" />
      <path
         sodipodi:nodetypes="ccccccccccccccccc"
         d="m 98.309116,29.556173 -16.729208,3.275444 -1.362872,13.370476 c -8.061767,5.318414 -8.686903,19.330922 0.350843,11.307845 l 1.24443,8.657204 c -2.403834,4.746983 0.04337,18.657449 7.622885,10.265866 l 6.18856,16.536958 c -9.343175,5.736094 3.640603,24.413804 8.320006,17.984744 l 21.64627,22.68707 9.72473,-13.17695 C 125.13111,114.08981 98.068934,97.329164 117.94648,97.782526 L 110.54217,83.75286 C 96.547033,79.031018 93.6637,66.61816 106.68164,72.411733 L 99.214481,56.595748 C 88.316288,58.275842 85.934775,40.595745 92.09598,44.768482 M 98.309116,29.556173 92.09598,44.768482"
         style="fill:#000000;fill-opacity:1;stroke:none;stroke-width:0.21;stroke-linecap:butt;stroke-linejoin:round;stroke-miterlimit:4;stroke-dasharray:none;stroke-opacity:1"
         id="path898" />
    </g>
    <path
       d="m 414.3711,-0.00783891 c -0.38629,-7.65e-4 -0.59945,0.007799997 -0.59945,0.007799997 0,0 3.32817,13.142778913 -3.0241,19.291328913 -6.35227,6.148549 -18.4335,3.273702 -18.4335,3.273702 0,0 8.21332,-4.801423 -0.79737,-13.3717935 C 382.506,0.62282809 370.85593,-3.8913e-5 370.85593,-3.8913e-5 c 0,0 3.48942,5.468244013 -2.53887,6.301424113 C 362.28878,7.1345653 349.39832,-3.8913029e-5 349.39832,-3.8913029e-5 L 354.99385,5.5960021 c 6.49497,3.7627999 12.25532,9.2273409 8.45788,15.8047199 -6.57737,3.797446 -12.04192,-1.962913 -15.80472,-8.457882 l -5.59604,-5.5955238 c 0,0 4.40592,9.5083728 4.19819,13.7056228 -0.20773,4.197251 -4.19819,10.03763 -4.19819,10.03763 l 14.24977,20.453017 c 0,0 10.32521,-10.251639 14.35417,-0.24133 4.02894,10.01031 -28.60394,20.693828 -28.60394,20.693828 l 14.24977,20.453014 c 0,0 12.85657,-18.965733 18.04955,-5.781043 5.19298,13.18469 -32.29932,26.233535 -32.29932,26.233535 l 20.83025,22.56504 c 0,0 -3.11064,-13.71733 2.70164,-18.88671 5.81229,-5.16937 18.75596,-3.67833 18.75596,-3.67833 0,0 -5.93588,6.83409 0.9431,14.97635 6.87898,8.14226 20.51503,7.58869 20.51503,7.58869 0,0 -3.32817,-13.14279 3.0241,-19.29133 6.35227,-6.14855 18.4335,-3.27371 18.4335,-3.27371 0,0 -8.21331,4.80143 0.79737,13.3718 9.01068,8.57037 20.66076,9.19324 20.66076,9.19324 0,0 -3.48942,-5.46825 2.53886,-6.30143 6.02828,-0.83318 18.91874,6.30143 18.91874,6.30143 l -5.59552,-5.59604 c -6.49497,-3.76281 -12.25532,-9.22735 -8.45789,-15.80473 6.57738,-3.79743 12.04192,1.96292 15.80473,8.45789 l 5.59604,5.59552 c 0,0 -4.40593,-9.50836 -4.1982,-13.70562 0.20773,-4.19725 4.1982,-10.03763 4.1982,-10.03763 L 463.26786,83.922954 c 0,0 -10.3252,10.251638 -14.35416,0.241329 -4.02895,-10.010309 28.60394,-20.693827 28.60394,-20.693827 L 463.26786,43.017442 c 0,0 -12.85656,18.965733 -18.04954,5.781043 -5.193,-13.184693 32.29932,-26.233542 32.29932,-26.233542 L 456.68738,-8.7913029e-5 c 0,0 3.11065,13.717331913029 -2.70164,18.886701913029 -5.81229,5.169379 -18.75597,3.678329 -18.75596,3.678329 0,0 5.93588,-6.834087 -0.9431,-14.9763467 -6.01911,-7.12447721 -17.21155,-7.59108621 -19.91558,-7.59643521 z M 379.73394,37.682884 c 16.80219,8.585448 38.34535,28.944604 45.79514,14.305068 l 14.30558,45.795655 C 423.03247,89.198153 401.48931,68.839005 394.03953,83.478539 Z"
       style="fill:#000000;fill-opacity:1;stroke:none;stroke-width:0.208711;stroke-linecap:square;stroke-linejoin:round;stroke-miterlimit:4;stroke-dasharray:none;stroke-dashoffset:44.9958;stroke-opacity:1"
       id="rect7928" />
  </g>
</svg>
