<?xml version="1.0" encoding="UTF-8" standalone="no"?>
<svg
   xmlns:dc="http://purl.org/dc/elements/1.1/"
   xmlns:cc="http://creativecommons.org/ns#"
   xmlns:rdf="http://www.w3.org/1999/02/22-rdf-syntax-ns#"
   xmlns:svg="http://www.w3.org/2000/svg"
   xmlns="http://www.w3.org/2000/svg"
   xmlns:sodipodi="http://sodipodi.sourceforge.net/DTD/sodipodi-0.dtd"
   xmlns:inkscape="http://www.inkscape.org/namespaces/inkscape"
   inkscape:export-ydpi="341.32999"
   inkscape:export-xdpi="341.32999"
   inkscape:export-filename="/home/mszegedy/documents/Dropbox/backup/code/tex/mitaenkeele/glyphs/KUDI.png"
   inkscape:version="1.0 (4035a4fb49, 2020-05-01)"
   sodipodi:docname="ka.svg"
   id="svg8"
   version="1.1"
   viewBox="0 0 67.73333 135.46666"
   height="512"
   width="256">
  <defs
     id="defs2" />
  <sodipodi:namedview
     inkscape:window-maximized="1"
     inkscape:window-y="19"
     inkscape:window-x="0"
     inkscape:window-height="1061"
     inkscape:window-width="1920"
     units="px"
     showgrid="false"
     inkscape:document-rotation="0"
     inkscape:current-layer="layer1"
     inkscape:document-units="mm"
     inkscape:cy="117.84067"
     inkscape:cx="195.07811"
     inkscape:zoom="0.85796482"
     inkscape:pageshadow="2"
     inkscape:pageopacity="0.0"
     borderopacity="1.0"
     bordercolor="#666666"
     pagecolor="#ffffff"
     id="base" />
  <metadata
     id="metadata5">
    <rdf:RDF>
      <cc:Work
         rdf:about="">
        <dc:format>image/svg+xml</dc:format>
        <dc:type
           rdf:resource="http://purl.org/dc/dcmitype/StillImage" />
        <dc:title></dc:title>
      </cc:Work>
    </rdf:RDF>
  </metadata>
  <g
     id="layer1"
     inkscape:groupmode="layer"
     inkscape:label="Layer 1">
    <path
       sodipodi:nodetypes="czccccccccccccccczcccscccccccccc"
       d="m 27.022123,3.4953954 c 0,0 7.034093,13.9520346 5.834269,14.7511646 -1.199825,0.79913 -3.823385,-2.861805 -3.823385,-2.861805 l -2.972394,13.688479 c 2.151167,14.579683 4.938565,30.520828 -4.437211,20.434261 L 17.608596,67.996501 C 23.548128,87.224804 16.656073,84.513108 3.8188884,79.016365 l 8.3626106,19.206379 c 12.792528,5.163846 9.822724,22.478606 14.694378,33.748526 l 6.990789,-6.9913 6.990789,6.9913 c 8.412553,-9.71395 12.307243,-25.67699 26.875877,-26.87588 L 61.915608,85.262945 C 47.807205,100.54516 56.77051,77.54698 57.105383,68.865025 l -4.38199,-14.938073 c -8.062748,7.56544 -6.969495,-4.987888 -5.431972,-18.517428 L 41.417282,15.384755 c 0,0 -3.502575,4.043914 -4.843288,3.078626 C 35.233281,17.498093 42.408263,3.4953954 42.408263,3.4953954 Z M 25.170556,62.458722 c 0,0 5.391168,4.7625 8.69611,4.7625 3.304942,0 8.696111,-4.7625 8.696111,-4.7625 l -8.696111,45.764128 z m 8.666138,48.361908 c 0.01,-4e-5 0.01998,-4e-5 0.02997,0 2.700867,-8e-5 4.89045,2.18927 4.890659,4.89014 7.1e-5,2.70106 -2.189591,4.89073 -4.890659,4.89065 -2.701067,8e-5 -4.89073,-2.18959 -4.890659,-4.89065 1.59e-4,-2.68921 2.171534,-4.87374 4.860687,-4.89014 z"
       style="fill:#000000;stroke:none;stroke-width:3.04059;stroke-linecap:square;stroke-linejoin:round;stroke-dashoffset:44.9958;stroke-opacity:1"
       id="rect9035" />
  </g>
</svg>
