<?xml version="1.0" encoding="UTF-8" standalone="no"?>
<svg
   xmlns:dc="http://purl.org/dc/elements/1.1/"
   xmlns:cc="http://creativecommons.org/ns#"
   xmlns:rdf="http://www.w3.org/1999/02/22-rdf-syntax-ns#"
   xmlns:svg="http://www.w3.org/2000/svg"
   xmlns="http://www.w3.org/2000/svg"
   xmlns:sodipodi="http://sodipodi.sourceforge.net/DTD/sodipodi-0.dtd"
   xmlns:inkscape="http://www.inkscape.org/namespaces/inkscape"
   inkscape:export-ydpi="341.32999"
   inkscape:export-xdpi="341.32999"
   inkscape:export-filename="/home/mszegedy/documents/Dropbox/backup/code/tex/mitaenkeele/glyphs/sentence-1.png"
   sodipodi:docname="sentence-1.svg"
   inkscape:version="1.0 (4035a4fb49, 2020-05-01)"
   id="svg2026"
   version="1.1"
   viewBox="0 0 236.50742 572.23029"
   height="572.23029mm"
   width="236.50742mm">
  <defs
     id="defs2020" />
  <sodipodi:namedview
     inkscape:window-maximized="1"
     inkscape:window-y="19"
     inkscape:window-x="0"
     inkscape:window-height="1061"
     inkscape:window-width="1920"
     showgrid="false"
     inkscape:document-rotation="0"
     inkscape:current-layer="layer1"
     inkscape:document-units="mm"
     inkscape:cy="1498.7477"
     inkscape:cx="67.394547"
     inkscape:zoom="0.34915069"
     inkscape:pageshadow="2"
     inkscape:pageopacity="1"
     borderopacity="1.0"
     bordercolor="#666666"
     pagecolor="#ffffff"
     id="base" />
  <metadata
     id="metadata2023">
    <rdf:RDF>
      <cc:Work
         rdf:about="">
        <dc:format>image/svg+xml</dc:format>
        <dc:type
           rdf:resource="http://purl.org/dc/dcmitype/StillImage" />
        <dc:title></dc:title>
      </cc:Work>
    </rdf:RDF>
  </metadata>
  <g
     transform="translate(-37.266664,92.71691)"
     id="layer1"
     inkscape:groupmode="layer"
     inkscape:label="Layer 1">
    <path
       d="m 153.18098,-76.577309 -9.22011,15.06729 c 0,0 6.00176,4.8166 1.88981,11.24841 -4.11194,6.43182 -11.4794,3.13573 -11.4794,3.13573 l -9.89087,14.8363 c 0,0 9.6593,7.19531 4.29844,14.57017 -5.36085,7.37487 -14.61151,0.89969 -14.61151,0.89969 l -10.62261,15.93391 c 0,0 7.33752,-3.20639 8.93589,1.71773 1.59838,4.92412 -3.26853,10.11307 -3.26853,10.11307 l 6.16035,0.72451 c 0,0 15.23387,-15.92543 17.39273,0.0749 2.15886,16.00036 -16.5747,4.35839 -16.5747,4.35839 l -6.52931,2.24586 c 0,0 5.76899,3.78815 5.49837,8.70903 -0.27062,4.92087 -6.49469,6.13141 -6.49469,6.13141 l 15.43161,7.71632 c 0,0 4.948,-20.02732 12.44885,-15.79955 7.50086,4.22777 -2.66908,20.68918 -2.66908,20.68918 l 9.86968,6.2606 c -2.41395,-6.48315 3.34862,-18.3528 11.77447,-18.35289 8.42586,9e-5 14.18842,11.86974 11.77448,18.35289 l 9.86968,-6.2606 c 0,0 -10.16994,-16.46141 -2.66909,-20.68918 7.50086,-4.22777 12.44886,15.79955 12.44886,15.79955 l 15.43161,-7.71632 c 0,0 -6.22407,-1.21054 -6.49469,-6.13141 -0.27063,-4.92088 5.49837,-8.70903 5.49837,-8.70903 l -6.52932,-2.24586 c 0,0 -18.73356,11.64197 -16.5747,-4.35839 2.15886,-16.00036 17.39274,-0.0749 17.39274,-0.0749 l 6.16035,-0.72451 c 0,0 -4.86691,-5.18895 -3.26854,-10.11307 1.59838,-4.92412 8.93589,-1.71773 8.93589,-1.71773 l -10.62261,-15.93391 c 0,0 -9.25065,6.47518 -14.61151,-0.89969 -5.36085,-7.37486 4.29845,-14.57017 4.29845,-14.57017 l -9.89087,-14.8363 c 0,0 -7.36746,3.29609 -11.4794,-3.13573 -4.11195,-6.43182 1.8898,-11.24841 1.8898,-11.24841 l -9.2201,-15.06729 0.50177,7.43779 c 3.28841,0.69468 4.26998,3.76209 4.27003,7.12308 -1e-4,3.92736 -3.18383,7.11109 -7.1112,7.11119 -3.92736,-1e-4 -7.11109,-3.18383 -7.11119,-7.11119 5e-5,-3.36099 0.98162,-6.4284 4.27002,-7.12308 z m 2.33939,41.49514 c 5.04105,-3e-5 9.12764,4.08656 9.12761,9.12761 3e-5,5.04105 -4.08656,9.12763 -9.12761,9.12761 -5.04105,2e-5 -9.12763,-4.08656 -9.12761,-9.12761 -2e-5,-5.04105 4.08656,-9.12764 9.12761,-9.12761 z m 0,27.64379 c 7.71524,3e-5 13.96967,6.25445 13.96969,13.9696899 -2e-5,7.7152401 -6.25445,13.9696601 -13.96969,13.9696901 -7.71523,-3e-5 -13.96966,-6.25445 -13.96969,-13.9696901 3e-5,-7.7152399 6.25446,-13.9696599 13.96969,-13.9696899 z"
       style="fill:#000000;stroke-width:4.30006;stroke-linecap:square;stroke-linejoin:round;stroke-dashoffset:44.9958"
       id="rect9035-6" />
    <g
       id="g7168">
      <path
         id="path2090"
         style="fill:#000000;fill-opacity:1;stroke:none;stroke-width:0.162625;stroke-linecap:square;stroke-linejoin:round;stroke-miterlimit:4;stroke-dasharray:none;stroke-dashoffset:44.9958;stroke-opacity:1"
         inkscape:transform-center-x="13.139371"
         inkscape:transform-center-y="-1.2579639"
         d="m 98.890291,58.416107 0.821656,1.151868 c 4.918833,1.220494 14.706593,3.897437 14.706593,3.897437 l 10.08414,2.798794 c 0,0 5.62935,1.409931 8.43205,2.167311 2.13433,-4.123608 6.30704,-9.578557 6.37015,-10.01541 h -11.61635 c -7.06691,10.595871 -15.26315,0 -15.26315,0 z m 43.631959,16.711125 c 0,0 1.65802,6.692651 2.45567,10.047965 h 10.54251 11.99616 l 5.12269,8.87336 5.1232,8.873363 -5.99808,10.38851 -5.99809,10.38955 h -10.24588 l -0.76998,2.71611 2.0314,8.02587 0.14314,0.54828 1.41542,6.39806 c 2.8949,0.19438 11.99276,15.09461 5.2803,21.64674 0.0144,0.0546 0.0266,0.11081 0.0424,0.16433 0.98443,4.05769 1.99388,8.11709 2.88716,12.19254 0.007,0.0806 0.006,0.15943 0.002,0.2372 0.0238,0.0359 0.0473,0.0675 0.0713,0.10438 l 6.76755,-11.72176 c 0,0 -5.07817,-12.39662 7.63158,-13.21883 l 5.80791,-10.05986 c -0.97623,-0.39007 -38.31336,5.20232 4.06332,-12.39045 l -11.04894,-6.37946 c -9.40383,12.65435 -8.76204,3.12972 -3.48971,-6.00222 5.27233,-9.13195 13.19981,-14.44996 6.94273,0.0212 l 11.04894,6.37945 c -5.9526,-45.495701 7.87323,-10.36455 8.69916,-9.71414 l 5.80791,-10.06036 c -5.64285,-11.418056 7.63158,-13.217805 7.63158,-13.217805 l 6.76806,-11.72228 c -3.80626,-0.894551 -2.66887,-4.489291 -0.35553,-8.1163 l -12.23492,7.064166 c 4.25031,17.135552 -22.42103,12.164719 -24.0316,9.37514 -1.61056,-2.789571 7.42053,-28.373247 20.1352,-16.124597 l 12.23491,-7.063653 c -4.29775,0.18991 -7.97969,-0.622035 -6.85126,-4.365624 h -13.53561 c 0,0 -8.19625,10.595871 -15.26315,0 h -11.61583 c 0.15029,1.040481 23.6616,30.579223 -12.76252,2.676323 v 12.758394 c 15.66089,1.81678 7.09164,6.023406 -3.45302,6.023406 -10.54466,0 -19.11392,-4.206626 -3.45302,-6.023406 V 61.09243 c -6.32178,4.842833 -13.98158,9.783898 -13.98158,9.783898"
         sodipodi:nodetypes="ccccccccccccccccccccccccccccccccsccccccccsccccccccsccc" />
      <path
         d="m 161.84921,177.66219 -3.24662,-13.55047 c -4.6892,-1.85036 -9.69968,-11.71057 -2.02707,-8.46054 l -1.93255,-8.06638 c -9.90066,-0.77318 -14.78094,-8.95383 -2.07676,-8.66755 l -2.24879,-9.38512 c -15.63953,-4.06744 -12.04257,-9.04442 -2.08754,-8.71204 l -2.45459,-10.24492 c -15.60461,1.15349 -21.90707,-11.081337 -3.74825,-15.644087 l -4.05106,-16.90854 -3.95168,3.79773 c 0.58376,2.461784 1.73159,4.772566 0.11223,5.87364 -2.38222,1.619791 -6.04922,-1.18749 -7.97457,-3.330296 -1.68358,-1.873736 -3.7336,-5.283313 -2.15247,-7.244255 1.18721,-1.472383 4.26705,0.124103 5.65825,0.426245 l 4.02781,-3.871536 -11.87629,-3.18223 c -5.09795,16.009212 -11.95863,9.494816 -7.40574,-1.984368 l -18.473743,-4.950025 4.703073,8.145965 c 4.33168,-2.026981 7.7615,-1.455613 8.41059,-0.332813 0.83272,1.44148 -3.08977,4.04244 -8.67347,7.266181 -5.583698,3.223759 -9.797442,5.320259 -10.629438,3.878359 -0.647776,-1.12356 0.572251,-4.379531 4.493518,-7.117377 L 89.540975,67.251798 84.59095,85.725543 c 12.21771,1.796674 14.429005,10.99539 -1.984363,7.405743 l -3.182239,11.876284 5.366757,-1.55243 c 0.433936,-1.35588 0.591243,-4.821336 2.459974,-5.113298 2.488791,-0.388828 4.416562,3.091328 5.197469,5.486218 0.893049,2.73881 1.490723,7.31817 -1.103151,8.57133 -1.763245,0.85187 -3.190516,-1.29758 -5.030603,-3.03402 l -5.264771,1.52339 12.617696,11.96259 c 13.030861,-13.44462 20.475291,-1.86911 11.674041,11.06813 l 7.64505,7.2482 c 4.68967,-8.78749 10.79835,-9.41407 6.50109,6.16388 l 7.00336,6.64007 c 6.10415,-11.14528 10.74866,-2.82851 6.46793,6.13231 l 6.01941,5.70682 c 1.02171,-8.26969 7.05566,0.99962 6.31352,5.98576 l 10.11175,9.58689 c -14.04026,-24.31843 -22.05053,-35.24625 -17.55204,-37.84345 4.49848,-2.5972 9.95712,9.8038 23.99738,34.12223 z m -39.40909,-60.8161 c -11.36802,6.56355 -20.98987,-6.17417 -24.540961,-15.09803 -2.388489,-6.002268 -1.538179,-14.935568 5.016311,-18.719664 6.55436,-3.784304 14.71597,-0.05404 18.71984,5.015587 5.95275,7.537262 12.17302,22.238887 0.80481,28.802107 z"
         style="fill:#000000;stroke-width:3.04059;stroke-linecap:square;stroke-linejoin:round;stroke-dashoffset:44.9958"
         id="rect9035-2-0" />
    </g>
    <g
       transform="translate(0,-4.057866)"
       id="g7124">
      <path
         id="path896"
         style="fill:#000000;fill-opacity:1;stroke:none;stroke-width:0.793701;stroke-linecap:butt;stroke-linejoin:round;stroke-miterlimit:4;stroke-dasharray:none;stroke-opacity:1"
         d="m 443.46552,1133.0934 -14.72138,-49.9332 -55.79883,84.2988 c 30.77632,-4.0915 30.14761,12.7373 -45.59961,20.1426 l 25.48242,57.4941 c 28.13938,-17.1321 16.73207,47.5302 -28.90429,62.7012 l -22.22266,51.7773 c 65.70138,-17.4154 42.82812,43.8216 -28.59179,50.8653 l -25.98438,53.0253 c 88.20797,-5.4227 -55.64453,67.7286 -55.64453,67.7286 l 36.75586,49.8027 c 47.50751,-19.1573 73.94823,-24.1541 121.80469,-42.4141 21.36585,19.7729 69.51141,-26.8419 50.23828,-56.4375 l 32.21484,-36.5976 c 41.52344,38.9239 35.1491,-53.6347 6.44922,-50.0078 l -24.50781,-50.3477 c 40.43599,17.9346 27.94148,-37.4517 0.0605,-59 l 20.07618,-37.7187 c 12.74358,34.1823 32.12457,-28.2809 17.13867,-37.9102 6.03361,-14.9335 13.77063,-18.8385 13.77063,-18.8385 l -35.0918,-51.0823 m 49.74166,-26.6846 -14.98881,-30.7969 -10.89701,45.3964"
         transform="matrix(0.26458333,0,0,0.26458333,37.266664,-92.71691)"
         sodipodi:nodetypes="cccccccccccccccccccccccc" />
      <path
         d="m 157.37042,211.67974 c 4.74186,6.96375 20.58664,26.84312 20.94469,28.74388 0.35805,1.90076 -4.01142,3.60412 -3.55997,-3.21119 l -10.01081,-4.96995 c -4.60037,6.12764 18.04127,19.0444 17.9883,24.50279 -0.053,5.45837 -4.72952,2.91098 -5.02415,-1.36818 l -8.45138,-3.70244 c -4.11596,6.46459 20.17852,20.94452 18.40309,25.31113 -1.77544,4.36662 -5.29192,2.19235 -5.60042,-2.87271 l -8.28179,-2.97153 c -3.95776,5.03978 21.15443,22.74652 20.51454,27.8531 -0.63988,5.1066 -7.359,2.40975 -7.40062,-4.07459 l -8.71231,-4.82517 c 0,0 1.09256,17.31095 8.65925,20.82013 4.72332,2.19054 19.12767,-7.26371 25.14512,-4.58294 6.01745,2.68077 -0.66923,6.74012 -0.66923,6.74012 l 2.12551,8.70445 c 6.14687,-5.68828 6.37621,-11.40968 3.78135,-17.6206 4.08139,5.35267 9.15095,8.01476 17.15056,5.53555 l -6.47551,-6.19298 c 0,0 -6.85883,3.76117 -6.17174,-2.79049 0.68711,-6.55165 16.07691,-14.29906 16.54151,-19.48483 0.74431,-8.30755 -13.70113,-17.9092 -13.70113,-17.9092 l -0.17743,9.95767 c 5.59478,3.27821 4.57077,10.44556 -0.17162,8.44642 -4.74237,-1.99914 -7.52076,-32.6003 -13.86422,-31.69267 l -1.56748,8.65801 c 4.23222,2.7997 4.35695,6.93218 -0.31236,6.28646 -4.66931,-0.64573 -5.06206,-28.92534 -12.71854,-28.59311 l -1.01928,9.17033 c 3.55854,2.39473 3.42637,7.71844 -1.3272,5.03513 -4.75359,-2.68332 -4.61901,-28.74994 -12.22589,-27.82972 l -0.7013,11.15459 c 6.12796,3.01669 2.46807,5.94908 1.00099,4.68862 -1.46708,-1.26045 -10.76073,-24.92212 -14.42059,-32.51058 l -4.84497,2.79725 z m 39.2899,56.86312 20.9635,5.61716 -5.61741,20.96305 -20.96325,-5.6167 z"
         style="fill:#000000;stroke-width:3.04059;stroke-linecap:square;stroke-linejoin:round;stroke-dashoffset:44.9958"
         id="rect9035-3-9" />
    </g>
    <g
       transform="translate(0,-16.139605)"
       id="g7120">
      <path
         id="rect7928"
         style="fill:#000000;fill-opacity:1;stroke:none;stroke-width:0.788829;stroke-linecap:square;stroke-linejoin:round;stroke-miterlimit:4;stroke-dasharray:none;stroke-dashoffset:44.9958;stroke-opacity:1"
         d="m 464.2793,1650.6992 c -1.46,0 -2.26563,0.031 -2.26563,0.031 0,0 12.57889,49.6735 -11.42969,72.9121 -24.00861,23.2386 -69.66992,12.373 -69.66992,12.373 0,0 31.04248,-18.1471 -3.01367,-50.539 -34.05607,-32.392 -78.08789,-34.7461 -78.08789,-34.7461 0,0 13.18835,20.6673 -9.5957,23.8164 -2.63636,0.3643 -5.6305,0.3106 -8.84571,-0.043 5.63824,20.2574 7.49702,41.5868 12.625,61.9824 2.46977,9.7468 6.06815,19.885 12.88086,27.7305 5.24829,7.7824 15.66814,9.0711 21.5625,16.1562 2.26625,4.5087 4.43114,9.0639 6.55664,13.6387 63.26209,32.9095 143.53712,108.0685 171.45508,53.2071 l 46.87891,150.0683 c 0.80651,-3.936 1.61068,-7.8696 2.38476,-11.8047 3.68272,-11.4843 10.6175,-34.0328 10.6175,-34.0328 0,0 20.40868,-2.8029 32.48993,-3.4066 5.21616,-7.276 13.86958,-14.3467 24.02929,-20.9004 -0.01,-0.043 -0.0177,-0.092 -0.0273,-0.1348 -7.82679,-29.0687 -22.1154,-50.668 -30.23633,-76.2558 -4.4615,-2.4763 -8.48569,-7.3725 -11.7207,-15.586 -7.40221,-18.7941 8.14662,-37.5132 30.38281,-53.543 -3.96333,-8.7943 -3.71381,-51.7534 0.76562,-57.8691 -22.78959,17.5708 -68.90039,12.2598 -68.90039,12.2598 0,0 22.43485,-25.8296 -3.56445,-56.6035 -22.74935,-26.9272 -65.05153,-28.6908 -75.27148,-28.711 z m -160.45118,216.4919 c 0.39825,12.5827 5.77271,24.9174 7.57422,37.543 -2.6779,18.8795 -7.29226,37.4362 -11.28711,56.0742 -0.10856,0.3878 -0.18991,0.7843 -0.28711,1.1758 5.04803,2.1695 9.60467,7.204 13.19141,16.3105 7.9533,20.193 -10.5858,40.3013 -35.45117,57.0781 0.73785,4.9652 1.45286,9.9338 2.07031,14.9102 -1.68899,15.9024 -9.16601,47.0215 -9.16601,47.0215 l 9.41015,-5.957 c 21.96771,-19.5378 70.88867,-13.9024 70.88867,-13.9024 0,0 -22.43484,25.8296 3.56446,56.6035 25.99929,30.7739 77.53711,28.6817 77.53711,28.6817 0,0 -12.57893,-49.6736 11.42968,-72.9121 24.00855,-23.2387 69.66993,-12.3731 69.66993,-12.3731 0,0 -31.04245,18.1471 3.01367,50.5391 34.05615,32.3919 78.08789,34.7461 78.08789,34.7461 0,0 -13.18835,-20.6674 9.5957,-23.8164 3.97466,-0.5494 13.9043,0.8125 13.9043,0.8125 l -41.95679,-44.9927 c 0,0 23.80738,-32.4356 18.88742,-46.5958 -4.07243,21.9537 -40.44218,7.1408 -54.70797,2.4522 l 10.05468,-36.0512 C 488.18711,1979.7495 414.03901,1913.9596 387.43555,1966.238 l -28.70899,-91.9024 c -4.52824,5.3529 -11.75428,8.473 -18.64062,6.127 -12.14899,-4.2122 -23.5995,-10.5578 -36.25782,-13.2715 z m -34.27539,294.957 c -0.0728,0.072 -0.14468,0.1457 -0.21875,0.2168 l 0.3379,0.3653 c 0,0 -0.0964,-0.4779 -0.11915,-0.5821 z"
         transform="matrix(0.26458333,0,0,0.26458333,37.266664,-92.71691)"
         sodipodi:nodetypes="ccscscscccccccccccccscccsscsccscccccscscscscccccccccscccc" />
      <path
         d="m 215.60289,344.03873 c -7.18523,0 -6.46151,24.65173 -9.12244,24.65173 -2.66094,0 -2.60295,-1.07536 -4.35168,-3.50315 v 11.76104 c 12.96223,-10.82845 4.7104,30.31007 0.0217,12.40286 h -5.33145 c -2.48439,12.28991 26.58996,39.90641 -7.45329,36.87011 l -3.92534,19.41742 c 10.62012,6.77491 2.6915,-2.63641 8.89403,-3.21376 6.20253,-0.57736 7.77781,12.97644 -1.47329,18.04283 l 10.93576,10.93577 c 9.21197,-6.50702 7.53234,8.10183 15.51016,8.10183 7.97783,0 6.2982,-14.60886 15.51017,-8.10183 l 10.93576,-10.93577 c -9.2511,-5.06639 -7.67582,-18.62019 -1.47329,-18.04283 6.20253,0.57736 -1.72608,9.98867 8.89403,3.21376 l -3.92534,-19.41742 c -34.04325,3.03629 -4.9689,-24.5802 -7.45329,-36.87011 h -5.33146 c -4.68869,17.90721 -12.94052,-23.23131 0.0217,-12.40286 v -11.76104 c -1.74873,2.42779 -1.69074,3.50315 -4.35168,3.50315 -2.66092,0 -1.9372,-24.65173 -9.12243,-24.65173 v 9.27644 c 4.30219,10.70502 5.92634,21.01319 -3.70417,21.01319 -9.6305,0 -8.00636,-10.30817 -3.70416,-21.01319 z m 3.70416,46.15739 13.22555,48.06943 -13.22555,26.19788 -13.22555,-26.19788 z"
         style="fill:#000000;stroke-width:3.04059;stroke-linecap:square;stroke-linejoin:round;stroke-dashoffset:44.9958"
         id="rect9035" />
      <path
         id="rect9035-5"
         style="fill:#000000;stroke:none;stroke-width:3.04059;stroke-linecap:square;stroke-linejoin:round;stroke-dashoffset:44.9958;stroke-opacity:1"
         d="m 105.57267,475.99718 c 0,0 -7.034088,-13.95203 -5.834268,-14.75116 1.199828,-0.79913 3.823388,2.8618 3.823388,2.8618 l 2.97239,-13.68848 c -2.15116,-14.57968 -4.93856,-30.52082 4.43722,-20.43426 l 4.0148,-18.489 c -5.93953,-19.22831 0.95252,-16.51661 13.78971,-11.01987 l -8.36261,-19.20634 c -12.79253,-5.16384 -9.82273,-22.47861 -14.69438,-33.74852 l -6.990788,6.99129 -6.99079,-6.99129 c -8.41255,9.71394 -12.30724,25.67698 -26.87587,26.87588 l 5.81772,19.8324 c 14.1084,-15.28217 5.1451,7.71597 4.81022,16.39792 l 4.382,14.93808 c 8.06274,-7.56544 6.96949,4.98788 5.43197,18.51742 l 5.87413,20.02477 c 0,0 3.50258,-4.04391 4.84329,-3.07862 1.34072,0.96529 -5.83427,14.96798 -5.83427,14.96798 z m 1.85157,-58.96332 c 0,0 -5.39117,-4.7625 -8.696108,-4.7625 -3.30494,0 -8.69611,4.7625 -8.69611,4.7625 l 8.69611,-45.7641 z m -8.666138,-48.36188 c -0.01,4e-5 -0.02,4e-5 -0.03,0 -2.70086,9e-5 -4.89045,-2.18927 -4.89065,-4.89014 -8e-5,-2.70106 2.18959,-4.89072 4.89065,-4.89065 2.701068,-7e-5 4.890738,2.18959 4.890658,4.89065 -1.5e-4,2.68921 -2.17153,4.87374 -4.860678,4.89014 z"
         sodipodi:nodetypes="czccccccccccccccczcccscccccccccc" />
    </g>
    <path
       sodipodi:nodetypes="ccccsccscccccccccccccc"
       transform="matrix(0.26458333,0,0,0.26458333,37.266664,-92.71691)"
       d="M 82.881791,776.66515 39.988281,897.60156 C 187.13382,1058.0445 120.56673,1051.3007 65.576172,1041.9199 l 20.574219,95.3203 c 4.746791,10.869 19.770159,-36.7256 38.628909,-5.6406 18.85875,31.085 26.93825,115.6946 -58.298831,136.6602 l 25.708984,76.9687 c 101.063687,-44.7983 -10.204358,85.141 -17.222049,125.5392 -7.01769,40.3982 27.593156,78.1939 30.498116,94.342 l 54.96093,-64.7715 c -40.58173,-105.0469 53.43399,-209.123 94.32155,-143.9237 l 23.13476,-74.0039 c -88.36628,7.2765 -72.79433,-233.2944 27.58394,-125.2232 l 22.8457,-66.8183 C 303.54247,1066.7809 175.16226,1042.8429 301.52884,970.91497 L 205.37363,891.72453 C 220.18324,1011.289 105.07179,884.01095 82.881791,776.66515 Z m 83.672899,222.60633 35.75,82.13472 -40.67774,84.3223 -35.74804,-82.1347 z"
       style="fill:#000000;fill-opacity:1;stroke:none;stroke-width:0.999999px;stroke-linecap:butt;stroke-linejoin:miter;stroke-opacity:1"
       id="path7170" />
    <path
       sodipodi:nodetypes="cccccccccczccccccc"
       id="path7172"
       d="m 233.14156,85.042187 -6.11226,24.098893 c 19.63644,20.18622 1.52443,43.93137 -16.23926,20.633 l -7.22001,13.08052 c 38.67377,5.75767 9.487,65.97781 -13.16311,20.84224 l -17.97124,23.37697 14.95791,22.01438 c 21.48556,-33.31869 53.3219,28.75788 45.12008,39.58415 l 24.21502,12.9966 2.95458,-32.76715 c 0,0 -22.24793,-3.58476 -27.23254,-23.8182 -4.98461,-20.23345 0.32427,-32.13168 27.71831,-32.76026 l -9.83006,-19.51791 c -13.59037,9.0598 -9.2778,-37.72496 1.91023,-19.67211 l 10.91333,-14.94745 c -5.98471,-17.16141 -17.55739,0.57646 -21.83374,-3.16408 -6.38507,-5.91524 -7.22884,-13.77618 1.29239,-10.65757 z"
       style="fill:#000000;fill-opacity:1;stroke:none;stroke-width:0.264583px;stroke-linecap:butt;stroke-linejoin:miter;stroke-opacity:1" />
    <path
       sodipodi:nodetypes="csscczcccccczcccccccccc"
       id="path7194"
       d="m 178.25384,-77.09988 c 3.25327,2.136096 23.20922,12.580945 37.87809,7.549139 8.4944,-2.913802 24.34272,6.822794 18.54887,12.185487 -12.02897,11.133819 -45.68482,-1.452245 -45.38075,-6.932496 l 10.97437,22.63836 c 17.57523,-4.226152 21.60177,4.616681 22.94421,11.039408 1.34243,6.422726 -11.99818,6.637845 -19.58622,1.914589 l 14.91936,27.6248133 c 31.11844,-5.3712387 4.31979,29.7922177 -10.90273,15.8375397 l -3.02787,34.33312 c 15.81373,-16.870871 43.73111,17.821752 43.99451,38.3086 l 14.30526,-43.608853 c -1.73396,-10.204362 -30.13994,-2.774219 -30.4731,-11.900052 -0.33317,-9.125833 9.30887,-8.101131 11.80319,-3.00208 L 257.27456,2.8358436 c -20.93137,9.2691744 -30.5893,-20.3235916 -6.29038,-24.3923266 l -2.66032,-14.759235 c -16.98549,15.991042 -20.66994,-15.836758 7.5931,-22.357573 l 1.36169,-17.792565 c -22.335,9.9438 -25.1226,-4.759648 -21.60569,-10.639207 l -12.56043,-0.229203 c 7.07646,6.171829 -34.24809,12.19048 -30.07084,-0.548732 z"
       style="fill:#000000;fill-opacity:1;stroke:none;stroke-width:0.264583px;stroke-linecap:butt;stroke-linejoin:miter;stroke-opacity:1" />
    <path
       sodipodi:nodetypes="ccccccccccccccccscccccccc"
       transform="matrix(0.26458333,0,0,0.26458333,37.266664,-92.71691)"
       d="M 237.74219,46.65625 C 201.86334,180.31167 135.55398,116.65973 101.25391,76.275391 L 14.636719,86.808594 53.837891,185.96289 C 135.4034,135.94831 132.43649,418.50355 51.867188,351.48438 L 70.646484,472.92773 C 134.09028,440.18388 89.018909,662.70784 38.671875,619.50977 L 84.66417,741.61826 126.84961,628.54297 c -46.489274,26.1552 0.42727,-162.2667 25.90039,-83.90039 l 84.38086,-49.30078 -74.11133,-43.86719 c -39.55964,32.61551 -46.13494,-148.03209 41.85156,-43.16406 3.67507,-20.64404 12.60467,-39.36577 23.58203,-54.25196 C 69.111675,342.74438 205.43115,272.7164 214.70898,298.77344 l 32.74805,-56.6543 c -18.92492,1.48813 -46.67664,-29.79491 -36.71875,-59.38086 10.72451,-31.86361 60.96762,-60.86506 90.12305,-18.78711 l 42.89648,-72.988279 z m -78.21094,93.0625 28.96484,50.52344 -50.52539,28.96484 -28.96289,-50.52344 z"
       style="fill:#000000;fill-opacity:1;stroke:none;stroke-width:0.999999px;stroke-linecap:butt;stroke-linejoin:miter;stroke-opacity:1"
       id="path7196" />
    <path
       sodipodi:nodetypes="ccccccc"
       id="path7204"
       d="m 262.17212,278.42579 -25.90044,33.1933 c 15.09742,-5.04484 21.10092,42.52548 -2.62441,14.27007 l 31.62173,76.01847 1.92229,-39.45272 c -15.49574,4.34675 -19.01185,-64.1306 -0.29567,-47.46885 z"
       style="fill:#000000;fill-opacity:1;stroke:none;stroke-width:0.264583px;stroke-linecap:butt;stroke-linejoin:miter;stroke-opacity:1" />
  </g>
</svg>
